<svg width="92" height="92" viewBox="0 0 92 92" fill="none" xmlns="http://www.w3.org/2000/svg">
<path d="M89.585 44.4599C88.1053 42.9283 86.0824 42.0404 83.9534 41.988C81.8243 41.9356 79.7602 42.7229 78.207 44.1799L62.8095 57.8599C63.5881 59.3614 63.9928 61.0286 63.9894 62.7199C63.9811 64.9009 63.3116 67.0281 62.0692 68.8206C60.8268 70.6131 59.0699 71.9867 57.0306 72.7599L44.0927 77.6199C43.5965 77.7972 43.0506 77.7729 42.5721 77.5523C42.0936 77.3317 41.7207 76.9324 41.5332 76.4399C41.4384 76.196 41.3932 75.9355 41.4004 75.6738C41.4075 75.4122 41.4668 75.1546 41.5748 74.9161C41.6829 74.6777 41.8374 74.4632 42.0294 74.2853C42.2214 74.1074 42.447 73.9695 42.6929 73.8799L55.6308 69.0199C56.9094 68.5341 58.0106 67.6718 58.7889 66.547C59.5672 65.4222 59.986 64.0878 59.99 62.7199C59.9408 60.9534 59.2172 59.2727 57.9677 58.023C56.7182 56.7733 55.0376 56.0494 53.2711 55.9999H15.9973C15.9974 55.4747 15.894 54.9546 15.693 54.4693C15.492 53.984 15.1975 53.5431 14.8261 53.1716C14.4547 52.8002 14.0138 52.5056 13.5286 52.3045C13.0433 52.1035 12.5232 52 11.998 51.9999H3.99932C3.47408 52 2.95398 52.1035 2.46874 52.3045C1.98349 52.5056 1.5426 52.8002 1.17123 53.1716C0.799855 53.5431 0.50528 53.984 0.30432 54.4693C0.103361 54.9546 -4.72617e-05 55.4747 1.62041e-08 55.9999V87.9999C-7.42483e-05 89.0607 0.421236 90.0781 1.17125 90.8282C1.92127 91.5783 2.93855 91.9998 3.99932 91.9999H11.998C13.0588 91.9998 14.0761 91.5784 14.8261 90.8282C15.5761 90.0781 15.9974 89.0607 15.9973 87.9999H24.096L26.5956 89.0199C34.3526 92.2294 42.9347 92.8657 51.0802 90.8353C59.2257 88.8048 66.505 84.2148 71.848 77.7399L90.0649 55.7199C91.3941 54.1171 92.081 52.0779 91.9923 49.9976C91.9036 47.9172 91.0458 45.9438 89.585 44.4599ZM21.9963 83.9999H15.9973V59.9999H21.9963V83.9999ZM56.8362 -5.99151e-05C52.8906 -0.0106682 49.0616 1.33693 45.9923 3.81634C42.923 1.33693 39.094 -0.0106646 35.1484 -5.99151e-05C30.547 0.011438 26.138 1.84758 22.8886 5.10558C19.6392 8.36358 17.8147 12.7774 17.8154 17.3788C17.8154 35.664 43.8754 51.08 44.9846 51.7285C45.2907 51.9063 45.6383 51.9999 45.9923 51.9999C46.3462 51.9999 46.6939 51.9063 46.9999 51.7285C48.1091 51.0799 74.1692 35.6639 74.1692 17.3788C74.1699 12.7774 72.3454 8.36357 69.096 5.10557C65.8466 1.84757 61.4376 0.0114327 56.8362 -5.99151e-05ZM53.2922 37.3141C52.9265 37.6144 52.4647 37.7726 51.9917 37.7599C51.5886 37.7568 51.196 37.6313 50.8657 37.4001C50.5355 37.169 50.2831 36.843 50.1422 36.4653C50.0012 36.0877 49.9781 35.6761 50.0761 35.285C50.174 34.894 50.3884 34.5419 50.6908 34.2753C58.0939 27.9335 62.1713 21.9316 62.1713 17.3788C62.1755 15.9586 61.6161 14.5946 60.616 13.5862C59.6158 12.5778 58.2565 12.0074 56.8362 11.9999C56.3058 11.9999 55.797 11.7892 55.422 11.4142C55.0469 11.0391 54.8362 10.5304 54.8362 9.99994C54.8362 9.46951 55.0469 8.9608 55.422 8.58573C55.797 8.21065 56.3058 7.99994 56.8362 7.99994C59.3169 8.00851 61.6929 9.00081 63.4429 10.7591C65.1928 12.5174 66.1738 14.8981 66.1706 17.3788C66.1706 24.7361 59.168 32.279 53.2921 37.3141H53.2922Z" fill="#FFD500"/>
</svg>
