<svg width="107" height="95" viewBox="0 0 107 95" fill="none" xmlns="http://www.w3.org/2000/svg">
<path d="M99.5001 20.5406H7.50014C3.86943 20.5406 0.928711 23.4814 0.928711 27.1121V87.6349C0.928711 91.2657 3.86943 94.2064 7.50014 94.2064H99.5001C103.131 94.2064 106.072 91.2657 106.072 87.6349V27.1121C106.072 23.4978 103.131 20.5406 99.5001 20.5406ZM17.5544 87.3721H12.6259V27.3914H17.5544V87.3721ZM53.5001 82.0985C39.8644 82.0985 28.7916 71.0257 28.7916 57.3899C28.7916 43.7542 39.8644 32.6814 53.5001 32.6814C67.1359 32.6814 78.2087 43.7542 78.2087 57.3899C78.2087 71.0257 67.1359 82.0985 53.5001 82.0985ZM94.3744 87.3721H89.4459V27.3914H94.3744V87.3721Z" fill="#0786A5"/>
<path d="M28.0525 13.4928V17.2714H16.1582V13.4928C16.1582 12.3921 17.0618 11.4885 18.1625 11.4885H26.0482C27.1489 11.4885 28.0525 12.3757 28.0525 13.4928Z" fill="#0786A5"/>
<path d="M90.8425 13.4928V17.2714H78.9482V13.4928C78.9482 12.3921 79.8518 11.4885 80.9525 11.4885H88.8382C89.9554 11.4885 90.8425 12.3757 90.8425 13.4928Z" fill="#0786A5"/>
<path d="M41.3761 17.255V8.16996C41.3761 7.70996 41.7375 7.34853 42.1975 7.34853H64.8197C65.2797 7.34853 65.6411 7.70996 65.6411 8.16996V17.255H72.2125V8.16996C72.2125 4.09567 68.894 0.7771 64.8197 0.7771H42.1975C38.1233 0.7771 34.8047 4.09567 34.8047 8.16996V17.255H41.3761Z" fill="#0786A5"/>
<path d="M66.6266 60.0513L53.4838 73.1778L40.3738 60.0513C40.1602 59.8542 39.9795 59.6406 39.7988 59.427H46.0252C46.633 59.427 47.1916 59.0985 47.4709 58.5563L49.1302 55.4185L51.0195 61.4313C51.2166 62.072 51.7916 62.532 52.4652 62.5813H52.5802C53.2045 62.5813 53.7795 62.2199 54.0588 61.6613L55.3402 59.0328H61.2545C62.158 59.0328 62.8973 58.2935 62.8973 57.3899C62.8973 56.4863 62.158 55.747 61.2545 55.747H54.3052C53.7302 55.747 53.2209 56.0428 52.9087 56.5192L51.0852 50.687C50.888 50.0628 50.3295 49.6028 49.6723 49.537C48.9987 49.4878 48.3909 49.8328 48.0788 50.4078L45.0395 56.1413H38.0409C37.088 52.987 37.8602 49.4056 40.3738 46.9085C43.988 43.2942 49.8695 43.2942 53.4838 46.9085C57.1309 43.2942 62.9959 43.2942 66.6266 46.9085C70.2738 50.5228 70.2738 56.4206 66.6266 60.0513Z" fill="#0786A5"/>
</svg>
