<svg width="92" height="94" viewBox="0 0 92 94" fill="none" xmlns="http://www.w3.org/2000/svg">
<path fill-rule="evenodd" clip-rule="evenodd" d="M61.3333 43.4737V17.3516C61.3333 14.6737 60.26 12.0969 58.3178 10.2274L49.5778 1.58739C47.5844 -0.383134 44.3644 -0.383134 42.3711 1.58739L33.6822 10.1769C31.74 12.0969 30.6667 14.6737 30.6667 17.3516V23.2632H10.2222C4.6 23.2632 0 27.8105 0 33.3684V83.8948C0 89.4527 4.6 94 10.2222 94H81.7778C87.4 94 92 89.4527 92 83.8948V53.579C92 48.0211 87.4 43.4737 81.7778 43.4737H61.3333ZM20.4444 83.8948H10.2222V73.7895H20.4444V83.8948ZM20.4444 63.6842H10.2222V53.579H20.4444V63.6842ZM20.4444 43.4737H10.2222V33.3684H20.4444V43.4737ZM51.1111 83.8948H40.8889V73.7895H51.1111V83.8948ZM51.1111 63.6842H40.8889V53.579H51.1111V63.6842ZM51.1111 43.4737H40.8889V33.3684H51.1111V43.4737ZM51.1111 23.2632H40.8889V13.1579H51.1111V23.2632ZM81.7778 83.8948H71.5556V73.7895H81.7778V83.8948ZM81.7778 63.6842H71.5556V53.579H81.7778V63.6842Z" fill="#0786A5"/>
</svg>
