<svg width="46" height="46" viewBox="0 0 46 46" fill="none" xmlns="http://www.w3.org/2000/svg">
<path fill-rule="evenodd" clip-rule="evenodd" d="M23.0007 0.083313C10.3444 0.083313 0.0839844 10.3437 0.0839844 23C0.0839844 35.6562 10.3444 45.9166 23.0007 45.9166C35.6569 45.9166 45.9173 35.6562 45.9173 23C45.9173 10.3437 35.6569 0.083313 23.0007 0.083313ZM32.934 19.125C33.1169 18.9159 33.2561 18.6724 33.3435 18.4087C33.4309 18.145 33.4647 17.8665 33.4429 17.5895C33.4211 17.3126 33.3441 17.0428 33.2164 16.7961C33.0888 16.5493 32.9131 16.3306 32.6997 16.1528C32.4863 15.9749 32.2395 15.8416 31.9738 15.7605C31.7081 15.6795 31.4288 15.6524 31.1525 15.6809C30.8762 15.7093 30.6083 15.7928 30.3647 15.9263C30.1211 16.0598 29.9067 16.2407 29.734 16.4583L20.7757 27.2062L16.1402 22.5687C15.7473 22.1892 15.2211 21.9792 14.6748 21.984C14.1286 21.9887 13.606 22.2078 13.2198 22.5941C12.8335 22.9804 12.6144 23.5029 12.6097 24.0491C12.6049 24.5954 12.8149 25.1216 13.1944 25.5146L19.4444 31.7646C19.6491 31.9691 19.8942 32.1288 20.164 32.2334C20.4339 32.3381 20.7225 32.3853 21.0116 32.3722C21.3007 32.359 21.5839 32.2858 21.8432 32.1572C22.1024 32.0285 22.332 31.8473 22.5173 31.625L32.934 19.125Z" fill="#00AD64"/>
</svg>
