<svg width="24" height="24" viewBox="0 0 24 24" fill="none" xmlns="http://www.w3.org/2000/svg">
<mask id="path-1-inside-1_746_849" fill="white">
<path d="M7.2 18.4H6.4C6.4 18.6122 6.48429 18.8157 6.63432 18.9657C6.78434 19.1157 6.98783 19.2 7.2 19.2V18.4ZM16.8 18.4V19.2C17.0122 19.2 17.2157 19.1157 17.3657 18.9657C17.5157 18.8157 17.6 18.6122 17.6 18.4H16.8ZM7.2 19.2H16.8V17.6H7.2V19.2ZM17.6 18.4V15.2H16V18.4H17.6ZM6.4 15.2V18.4H8V15.2H6.4ZM12 9.6C10.5148 9.6 9.09041 10.19 8.0402 11.2402C6.99 12.2904 6.4 13.7148 6.4 15.2H8C8 14.1391 8.42143 13.1217 9.17157 12.3716C9.92172 11.6214 10.9391 11.2 12 11.2V9.6ZM17.6 15.2C17.6 13.7148 17.01 12.2904 15.9598 11.2402C14.9096 10.19 13.4852 9.6 12 9.6V11.2C13.0609 11.2 14.0783 11.6214 14.8284 12.3716C15.5786 13.1217 16 14.1391 16 15.2H17.6ZM22.4 18.4C22.4 18.792 22.2176 19.232 21.7504 19.7056C21.28 20.184 20.5584 20.6496 19.6048 21.0592C17.6992 21.8752 15.0112 22.4 12 22.4V24C15.1744 24 18.0864 23.4496 20.2352 22.528C21.3072 22.0688 22.2272 21.5008 22.8896 20.8304C23.5552 20.1552 24 19.3328 24 18.4H22.4ZM12 22.4C8.9888 22.4 6.3008 21.8752 4.3952 21.0592C3.4416 20.6496 2.72 20.184 2.2496 19.7056C1.7824 19.232 1.6 18.7936 1.6 18.4H0C0 19.3328 0.4448 20.1552 1.1104 20.8304C1.7728 21.5024 2.6928 22.0688 3.7664 22.5296C5.912 23.4496 8.824 24 12 24V22.4ZM1.6 18.4C1.6 18.0128 1.776 17.5792 2.2304 17.112C2.688 16.6416 3.3904 16.1808 4.32 15.7728L3.68 14.3072C2.6304 14.7664 1.7312 15.3312 1.0848 15.9968C0.432 16.6656 0 17.48 0 18.4H1.6ZM19.68 15.7728C20.6096 16.1808 21.312 16.6416 21.768 17.112C22.2224 17.5792 22.4 18.0128 22.4 18.4H24C24 17.48 23.568 16.6656 22.9152 15.9968C22.2688 15.3312 21.3696 14.7664 20.32 14.3072L19.68 15.7728ZM12 6.4C11.3635 6.4 10.753 6.14714 10.3029 5.69706C9.85286 5.24697 9.6 4.63652 9.6 4H8C8 5.06087 8.42143 6.07828 9.17157 6.82843C9.92172 7.57857 10.9391 8 12 8V6.4ZM14.4 4C14.4 4.63652 14.1471 5.24697 13.6971 5.69706C13.247 6.14714 12.6365 6.4 12 6.4V8C13.0609 8 14.0783 7.57857 14.8284 6.82843C15.5786 6.07828 16 5.06087 16 4H14.4ZM12 1.6C12.6365 1.6 13.247 1.85286 13.6971 2.30294C14.1471 2.75303 14.4 3.36348 14.4 4H16C16 2.93913 15.5786 1.92172 14.8284 1.17157C14.0783 0.421427 13.0609 0 12 0V1.6ZM12 0C10.9391 0 9.92172 0.421427 9.17157 1.17157C8.42143 1.92172 8 2.93913 8 4H9.6C9.6 3.36348 9.85286 2.75303 10.3029 2.30294C10.753 1.85286 11.3635 1.6 12 1.6V0Z"/>
</mask>
<path d="M17.6 14.2H16V16.2H17.6V14.2ZM8 14.2H6.4V16.2H8V14.2ZM13 11.2V9.6H11V11.2H13ZM11 22.4V24H13V22.4H11ZM24 17.4H22.4V19.4H24V17.4ZM1.6 17.4H0V19.4H1.6V17.4ZM9.6 3H8V5H9.6V3ZM13 8V6.4H11V8H13ZM16 3H14.4V5H16V3ZM11 0V1.6H13V0H11ZM7.2 18.4H9.2V16.4H7.2V18.4ZM16.8 18.4V16.4H14.8V18.4H16.8ZM16.8 17.6H18.8V15.6H16.8V17.6ZM7.2 17.6V15.6H5.2V17.6H7.2ZM17.6 15.2H15.6H17.6ZM16 18.4H14V20.4H16V18.4ZM6.4 15.2H4.4H6.4ZM8 18.4V20.4H10V18.4H8ZM8 15.2H6H8ZM12 11.2V9.2V11.2ZM21.7504 19.7056L20.3266 18.301L20.3243 18.3034L21.7504 19.7056ZM19.6048 21.0592L20.3921 22.8977L20.3941 22.8969L19.6048 21.0592ZM20.2352 22.528L19.4477 20.6896L19.4469 20.6899L20.2352 22.528ZM22.8896 20.8304L24.3123 22.2361L24.3139 22.2345L22.8896 20.8304ZM4.3952 21.0592L3.60587 22.8969L3.60792 22.8977L4.3952 21.0592ZM2.2496 19.7056L3.67569 18.3034L3.6734 18.301L2.2496 19.7056ZM1.1104 20.8304L2.53475 19.4264L2.5347 19.4263L1.1104 20.8304ZM3.7664 22.5296L2.97757 24.3675L2.97823 24.3677L3.7664 22.5296ZM2.2304 17.112L0.796817 15.7174L0.796683 15.7176L2.2304 17.112ZM4.32 15.7728L5.12379 17.6042L6.95176 16.8019L6.15287 14.9724L4.32 15.7728ZM3.68 14.3072L5.51287 13.5068L4.71194 11.6727L2.87836 12.4749L3.68 14.3072ZM1.0848 15.9968L2.51603 17.3938L2.51956 17.3902L1.0848 15.9968ZM19.68 15.7728L17.8471 14.9724L17.0482 16.8019L18.8762 17.6042L19.68 15.7728ZM21.768 17.112L20.332 18.5041L20.3343 18.5064L21.768 17.112ZM22.9152 15.9968L21.4804 17.3902L21.484 17.3938L22.9152 15.9968ZM20.32 14.3072L21.1216 12.4749L19.2881 11.6727L18.4871 13.5068L20.32 14.3072ZM8 4H6H8ZM12 8V10V8ZM14.4 4H16.4H14.4ZM12 1.6V-0.4V1.6ZM7.2 16.4H6.4V20.4H7.2V16.4ZM4.4 18.4C4.4 19.1426 4.695 19.8548 5.2201 20.3799L8.04853 17.5515C8.27357 17.7765 8.4 18.0817 8.4 18.4H4.4ZM5.2201 20.3799C5.74521 20.905 6.4574 21.2 7.2 21.2V17.2C7.51826 17.2 7.82348 17.3264 8.04853 17.5515L5.2201 20.3799ZM9.2 19.2V18.4H5.2V19.2H9.2ZM14.8 18.4V19.2H18.8V18.4H14.8ZM16.8 21.2C17.5426 21.2 18.2548 20.905 18.7799 20.3799L15.9515 17.5515C16.1765 17.3264 16.4817 17.2 16.8 17.2V21.2ZM18.7799 20.3799C19.305 19.8548 19.6 19.1426 19.6 18.4H15.6C15.6 18.0817 15.7264 17.7765 15.9515 17.5515L18.7799 20.3799ZM17.6 16.4H16.8V20.4H17.6V16.4ZM7.2 21.2H16.8V17.2H7.2V21.2ZM18.8 19.2V17.6H14.8V19.2H18.8ZM16.8 15.6H7.2V19.6H16.8V15.6ZM5.2 17.6V19.2H9.2V17.6H5.2ZM19.6 18.4V15.2H15.6V18.4H19.6ZM14 15.2V18.4H18V15.2H14ZM16 20.4H17.6V16.4H16V20.4ZM4.4 15.2V18.4H8.4V15.2H4.4ZM6.4 20.4H8V16.4H6.4V20.4ZM10 18.4V15.2H6V18.4H10ZM12 7.6C9.98435 7.6 8.05126 8.40071 6.62599 9.82599L9.45442 12.6544C10.1295 11.9793 11.0452 11.6 12 11.6V7.6ZM6.62599 9.82599C5.20071 11.2513 4.4 13.1844 4.4 15.2H8.4C8.4 14.2452 8.77928 13.3295 9.45442 12.6544L6.62599 9.82599ZM10 15.2C10 14.6696 10.2107 14.1609 10.5858 13.7858L7.75736 10.9574C6.63214 12.0826 6 13.6087 6 15.2H10ZM10.5858 13.7858C10.9609 13.4107 11.4696 13.2 12 13.2V9.2C10.4087 9.2 8.88258 9.83214 7.75736 10.9574L10.5858 13.7858ZM19.6 15.2C19.6 13.1844 18.7993 11.2513 17.374 9.82599L14.5456 12.6544C15.2207 13.3295 15.6 14.2452 15.6 15.2H19.6ZM17.374 9.82599C15.9487 8.40071 14.0156 7.6 12 7.6V11.6C12.9548 11.6 13.8705 11.9793 14.5456 12.6544L17.374 9.82599ZM12 13.2C12.5304 13.2 13.0391 13.4107 13.4142 13.7858L16.2426 10.9574C15.1174 9.83214 13.5913 9.2 12 9.2V13.2ZM13.4142 13.7858C13.7893 14.1609 14 14.6696 14 15.2H18C18 13.6087 17.3679 12.0826 16.2426 10.9574L13.4142 13.7858ZM20.4 18.4C20.4 18.3415 20.407 18.2889 20.4173 18.245C20.4275 18.2016 20.4394 18.1735 20.445 18.1617C20.4553 18.14 20.4366 18.1895 20.3266 18.301L23.1742 21.1102C23.8908 20.3838 24.4 19.4667 24.4 18.4H20.4ZM20.3243 18.3034C20.0957 18.5359 19.6239 18.8743 18.8155 19.2215L20.3941 22.8969C21.4929 22.4249 22.4643 21.8321 23.1765 21.1078L20.3243 18.3034ZM18.8175 19.2207C17.215 19.9069 14.8066 20.4 12 20.4V24.4C15.2158 24.4 18.1834 23.8435 20.3921 22.8977L18.8175 19.2207ZM12 26C15.379 26 18.5711 25.4179 21.0235 24.3661L19.4469 20.6899C17.6017 21.4813 14.9698 22 12 22V26ZM21.0227 24.3664C22.2427 23.8438 23.4102 23.1491 24.3123 22.2361L21.4669 19.4247C21.0442 19.8526 20.3717 20.2938 19.4477 20.6896L21.0227 24.3664ZM24.3139 22.2345C25.2254 21.3098 26 20.0107 26 18.4H22C22 18.6549 21.885 19.0006 21.4653 19.4263L24.3139 22.2345ZM12 20.4C9.19337 20.4 6.78499 19.9069 5.18248 19.2207L3.60792 22.8977C5.81661 23.8435 8.78423 24.4 12 24.4V20.4ZM5.18453 19.2215C4.3761 18.8743 3.90434 18.5359 3.67569 18.3034L0.823513 21.1078C1.53566 21.8321 2.5071 22.4249 3.60587 22.8969L5.18453 19.2215ZM3.6734 18.301C3.56252 18.1886 3.54404 18.1393 3.55471 18.1616C3.56053 18.1738 3.57252 18.2023 3.58278 18.246C3.59316 18.2902 3.6 18.3424 3.6 18.4H-0.4C-0.4 19.4692 0.110044 20.3846 0.825799 21.1102L3.6734 18.301ZM-2 18.4C-2 20.0107 -1.22543 21.3098 -0.313903 22.2345L2.5347 19.4263C2.11503 19.0006 2 18.6549 2 18.4H-2ZM-0.313951 22.2344C0.589877 23.1513 1.75912 23.8445 2.97757 24.3675L4.55523 20.6917C3.62648 20.2931 2.95572 19.8535 2.53475 19.4264L-0.313951 22.2344ZM2.97823 24.3677C5.42758 25.418 8.61967 26 12 26V22C9.02833 22 6.39642 21.4812 4.55457 20.6915L2.97823 24.3677ZM3.6 18.4C3.6 18.4561 3.59347 18.5071 3.58351 18.5503C3.57365 18.5931 3.56201 18.6214 3.55596 18.6343C3.54462 18.6586 3.56038 18.6131 3.66412 18.5064L0.796683 15.7176C0.0908114 16.4433 -0.4 17.3512 -0.4 18.4H3.6ZM3.66398 18.5066C3.88338 18.281 4.33911 17.9486 5.12379 17.6042L3.51621 13.9414C2.44169 14.413 1.49262 15.0022 0.796817 15.7174L3.66398 18.5066ZM6.15287 14.9724L5.51287 13.5068L1.84713 15.1076L2.48714 16.5732L6.15287 14.9724ZM2.87836 12.4749C1.68109 12.9987 0.534675 13.6925 -0.349956 14.6034L2.51956 17.3902C2.92773 16.9699 3.57971 16.5341 4.48164 16.1395L2.87836 12.4749ZM-0.34643 14.5998C-1.24843 15.5239 -2 16.8132 -2 18.4H2C2 18.1468 2.11243 17.8073 2.51603 17.3938L-0.34643 14.5998ZM18.8762 17.6042C19.6616 17.9489 20.1156 18.2808 20.332 18.5041L23.204 15.7199C22.5084 15.0024 21.5576 14.4127 20.4838 13.9414L18.8762 17.6042ZM20.3343 18.5064C20.439 18.6141 20.4555 18.6605 20.4445 18.6371C20.4386 18.6245 20.4269 18.5962 20.4169 18.553C20.4067 18.5094 20.4 18.4575 20.4 18.4H24.4C24.4 17.3474 23.9041 16.4398 23.2017 15.7176L20.3343 18.5064ZM26 18.4C26 16.8132 25.2484 15.5239 24.3464 14.5998L21.484 17.3938C21.8876 17.8073 22 18.1468 22 18.4H26ZM24.35 14.6034C23.4653 13.6925 22.3189 12.9987 21.1216 12.4749L19.5184 16.1395C20.4203 16.5341 21.0723 16.9699 21.4804 17.3902L24.35 14.6034ZM18.4871 13.5068L17.8471 14.9724L21.5129 16.5732L22.1529 15.1076L18.4871 13.5068ZM12 4.4C11.8939 4.4 11.7922 4.35786 11.7172 4.28284L8.88873 7.11127C9.71389 7.93643 10.833 8.4 12 8.4V4.4ZM11.7172 4.28284C11.6421 4.20783 11.6 4.10609 11.6 4H7.6C7.6 5.16695 8.06357 6.28611 8.88873 7.11127L11.7172 4.28284ZM6 4C6 5.5913 6.63214 7.11742 7.75736 8.24264L10.5858 5.41421C10.2107 5.03914 10 4.53043 10 4H6ZM7.75736 8.24264C8.88258 9.36786 10.4087 10 12 10V6C11.4696 6 10.9609 5.78929 10.5858 5.41421L7.75736 8.24264ZM12.4 4C12.4 4.10609 12.3579 4.20783 12.2828 4.28284L15.1113 7.11127C15.9364 6.28611 16.4 5.16695 16.4 4H12.4ZM12.2828 4.28284C12.2078 4.35786 12.1061 4.4 12 4.4V8.4C13.167 8.4 14.2861 7.93643 15.1113 7.11127L12.2828 4.28284ZM12 10C13.5913 10 15.1174 9.36786 16.2426 8.24264L13.4142 5.41421C13.0391 5.78929 12.5304 6 12 6V10ZM16.2426 8.24264C17.3679 7.11742 18 5.5913 18 4H14C14 4.53043 13.7893 5.03914 13.4142 5.41421L16.2426 8.24264ZM12 3.6C12.1061 3.6 12.2078 3.64214 12.2828 3.71716L15.1113 0.88873C14.2861 0.0635703 13.167 -0.4 12 -0.4V3.6ZM12.2828 3.71716C12.3579 3.79217 12.4 3.89391 12.4 4H16.4C16.4 2.83305 15.9364 1.71389 15.1113 0.88873L12.2828 3.71716ZM18 4C18 2.4087 17.3679 0.882578 16.2426 -0.242641L13.4142 2.58579C13.7893 2.96086 14 3.46957 14 4H18ZM16.2426 -0.242641C15.1174 -1.36786 13.5913 -2 12 -2V2C12.5304 2 13.0391 2.21071 13.4142 2.58579L16.2426 -0.242641ZM12 -2C10.4087 -2 8.88258 -1.36786 7.75736 -0.242641L10.5858 2.58579C10.9609 2.21071 11.4696 2 12 2V-2ZM7.75736 -0.242641C6.63214 0.882578 6 2.4087 6 4H10C10 3.46957 10.2107 2.96086 10.5858 2.58579L7.75736 -0.242641ZM11.6 4C11.6 3.89391 11.6421 3.79217 11.7172 3.71716L8.88873 0.88873C8.06357 1.71389 7.6 2.83305 7.6 4H11.6ZM11.7172 3.71716C11.7922 3.64214 11.8939 3.6 12 3.6V-0.4C10.833 -0.4 9.71389 0.0635703 8.88873 0.88873L11.7172 3.71716Z" fill="#1BBAE1" mask="url(#path-1-inside-1_746_849)"/>
</svg>
