<svg width="22" height="26" viewBox="0 0 22 26" fill="none" xmlns="http://www.w3.org/2000/svg">
<path d="M18.5 18.02C20.0562 18.6813 21 19.5488 21 20.5C21 22.5713 16.5225 24.25 11 24.25C5.4775 24.25 1 22.5713 1 20.5C1 19.55 1.94375 18.68 3.5 18.02" stroke="#1BBAE1" stroke-width="2" stroke-linecap="round" stroke-linejoin="round"/>
<path d="M17.25 8.555C17.25 12.4213 11 19.25 11 19.25C11 19.25 4.75 12.4213 4.75 8.555C4.75 4.69 7.54875 1.75 11 1.75C14.4513 1.75 17.25 4.69 17.25 8.555V8.555Z" stroke="#1BBAE1" stroke-width="2" stroke-linecap="round" stroke-linejoin="round"/>
<path d="M11 9.25025C11.6904 9.25025 12.25 8.6906 12.25 8.00024C12.25 7.30989 11.6904 6.75024 11 6.75024C10.3096 6.75024 9.75 7.30989 9.75 8.00024C9.75 8.6906 10.3096 9.25025 11 9.25025Z" stroke="#1BBAE1" stroke-width="2" stroke-linecap="round" stroke-linejoin="round"/>
</svg>
