<svg width="234" height="44" viewBox="0 0 234 44" fill="none" xmlns="http://www.w3.org/2000/svg">
<g clip-path="url(#clip0_181_828)">
<path d="M152.914 20.8672L147.605 32.9844C147.129 34.0781 146.621 35.0195 146.082 35.8086C145.543 36.5898 144.859 37.1914 144.031 37.6133C143.203 38.0273 142.117 38.2344 140.773 38.2344C140.352 38.2344 139.895 38.2031 139.402 38.1406C138.91 38.0859 138.453 38 138.031 37.8828V34.7656C138.422 34.9141 138.844 35.0234 139.297 35.0938C139.758 35.1562 140.191 35.1875 140.598 35.1875C141.129 35.1875 141.559 35.0977 141.887 34.918C142.215 34.7383 142.477 34.4961 142.672 34.1914C142.867 33.8867 143.031 33.5469 143.164 33.1719L137.234 20.8672H141.078L144.277 28.2852C144.348 28.4414 144.438 28.6523 144.547 28.918C144.664 29.1758 144.777 29.4414 144.887 29.7148C145.004 29.9805 145.094 30.2148 145.156 30.418H145.285C145.348 30.2227 145.43 29.9883 145.531 29.7148C145.641 29.4336 145.754 29.1484 145.871 28.8594C145.988 28.5625 146.094 28.2969 146.188 28.0625L149.164 20.8672H152.914Z" fill="#FFD500"/>
<path d="M163.379 24.8984H167.316L162.125 31.1797L167.773 38H163.719L158.363 31.3555V38H154.789V24.8984H158.363V31.2617L163.379 24.8984Z" fill="#FFD500"/>
<path d="M176.938 24.6523C178.414 24.6523 179.605 25.2266 180.512 26.375C181.426 27.5234 181.883 29.207 181.883 31.4258C181.883 32.9102 181.668 34.1602 181.238 35.1758C180.809 36.1836 180.215 36.9453 179.457 37.4609C178.699 37.9766 177.828 38.2344 176.844 38.2344C176.211 38.2344 175.668 38.1562 175.215 38C174.762 37.8359 174.375 37.6289 174.055 37.3789C173.734 37.1211 173.457 36.8477 173.223 36.5586H173.035C173.098 36.8711 173.145 37.1914 173.176 37.5195C173.207 37.8477 173.223 38.168 173.223 38.4805V43.7656H169.648V24.8984H172.555L173.059 26.5977H173.223C173.457 26.2461 173.742 25.9219 174.078 25.625C174.414 25.3281 174.816 25.0938 175.285 24.9219C175.762 24.7422 176.312 24.6523 176.938 24.6523ZM175.789 27.5117C175.164 27.5117 174.668 27.6406 174.301 27.8984C173.934 28.1562 173.664 28.543 173.492 29.0586C173.328 29.5742 173.238 30.2266 173.223 31.0156V31.4023C173.223 32.2461 173.301 32.9609 173.457 33.5469C173.621 34.1328 173.891 34.5781 174.266 34.8828C174.648 35.1875 175.172 35.3398 175.836 35.3398C176.383 35.3398 176.832 35.1875 177.184 34.8828C177.535 34.5781 177.797 34.1328 177.969 33.5469C178.148 32.9531 178.238 32.2305 178.238 31.3789C178.238 30.0977 178.039 29.1328 177.641 28.4844C177.242 27.8359 176.625 27.5117 175.789 27.5117Z" fill="#FFD500"/>
<path d="M190.203 24.6289C191.961 24.6289 193.309 25.0117 194.246 25.7773C195.184 26.543 195.652 27.707 195.652 29.2695V38H193.156L192.465 36.2188H192.371C191.996 36.6875 191.613 37.0703 191.223 37.3672C190.832 37.6641 190.383 37.8828 189.875 38.0234C189.367 38.1641 188.75 38.2344 188.023 38.2344C187.25 38.2344 186.555 38.0859 185.938 37.7891C185.328 37.4922 184.848 37.0391 184.496 36.4297C184.145 35.8125 183.969 35.0312 183.969 34.0859C183.969 32.6953 184.457 31.6719 185.434 31.0156C186.41 30.3516 187.875 29.9844 189.828 29.9141L192.102 29.8438V29.2695C192.102 28.582 191.922 28.0781 191.562 27.7578C191.203 27.4375 190.703 27.2773 190.062 27.2773C189.43 27.2773 188.809 27.3672 188.199 27.5469C187.59 27.7266 186.98 27.9531 186.371 28.2266L185.188 25.8125C185.883 25.4453 186.66 25.1562 187.52 24.9453C188.387 24.7344 189.281 24.6289 190.203 24.6289ZM192.102 31.9297L190.719 31.9766C189.562 32.0078 188.758 32.2148 188.305 32.5977C187.859 32.9805 187.637 33.4844 187.637 34.1094C187.637 34.6562 187.797 35.0469 188.117 35.2812C188.438 35.5078 188.855 35.6211 189.371 35.6211C190.137 35.6211 190.781 35.3945 191.305 34.9414C191.836 34.4883 192.102 33.8438 192.102 33.0078V31.9297Z" fill="#FFD500"/>
<path d="M202.918 38H199.344V24.8984H202.918V38ZM197.117 21.5352C197.117 20.9805 197.273 20.5781 197.586 20.3281C197.906 20.0781 198.293 19.9531 198.746 19.9531C199.191 19.9531 199.578 20.0781 199.906 20.3281C200.234 20.5781 200.398 20.9805 200.398 21.5352C200.398 22.0586 200.234 22.4492 199.906 22.707C199.578 22.9648 199.191 23.0938 198.746 23.0938C198.293 23.0938 197.906 22.9648 197.586 22.707C197.273 22.4492 197.117 22.0586 197.117 21.5352ZM201.84 21.5352C201.84 20.9805 201.996 20.5781 202.309 20.3281C202.629 20.0781 203.023 19.9531 203.492 19.9531C203.938 19.9531 204.324 20.0781 204.652 20.3281C204.988 20.5781 205.156 20.9805 205.156 21.5352C205.156 22.0586 204.988 22.4492 204.652 22.707C204.324 22.9648 203.938 23.0938 203.492 23.0938C203.023 23.0938 202.629 22.9648 202.309 22.707C201.996 22.4492 201.84 22.0586 201.84 21.5352Z" fill="#FFD500"/>
<path d="M210.254 24.8984V29.9375H215.246V24.8984H218.82V38H215.246V32.5977H210.254V38H206.68V24.8984H210.254Z" fill="#FFD500"/>
<path d="M220.695 24.8984H224.609L227.082 32.2695C227.16 32.5039 227.227 32.7422 227.281 32.9844C227.336 33.2266 227.383 33.4766 227.422 33.7344C227.461 33.9922 227.492 34.2617 227.516 34.543H227.586C227.633 34.1211 227.695 33.7266 227.773 33.3594C227.859 32.9922 227.965 32.6289 228.09 32.2695L230.516 24.8984H234.348L228.805 39.6758C228.469 40.582 228.031 41.3359 227.492 41.9375C226.953 42.5469 226.332 43.0039 225.629 43.3086C224.934 43.6133 224.168 43.7656 223.332 43.7656C222.926 43.7656 222.574 43.7422 222.277 43.6953C221.98 43.6562 221.727 43.6133 221.516 43.5664V40.7305C221.68 40.7695 221.887 40.8047 222.137 40.8359C222.387 40.8672 222.648 40.8828 222.922 40.8828C223.422 40.8828 223.852 40.7773 224.211 40.5664C224.57 40.3555 224.871 40.0703 225.113 39.7109C225.355 39.3594 225.547 38.9727 225.688 38.5508L225.898 37.9062L220.695 24.8984Z" fill="#FFD500"/>
<path d="M24.9395 9L22.0625 1.41797H22.0156C22.0312 1.57812 22.0449 1.77344 22.0566 2.00391C22.0684 2.23438 22.0781 2.48633 22.0859 2.75977C22.0938 3.0293 22.0977 3.30469 22.0977 3.58594V9H21.1719V0.433594H22.6484L25.3613 7.55859H25.4023L28.1562 0.433594H29.6211V9H28.6367V3.51562C28.6367 3.26172 28.6406 3.00781 28.6484 2.75391C28.6562 2.49609 28.666 2.25391 28.6777 2.02734C28.6895 1.79688 28.7012 1.59766 28.7129 1.42969H28.666L25.7539 9H24.9395Z" fill="#0786A5"/>
<path d="M32.791 2.57812V9H31.8184V2.57812H32.791ZM32.3164 0.175781C32.4766 0.175781 32.6133 0.228516 32.7266 0.333984C32.8438 0.435547 32.9023 0.595703 32.9023 0.814453C32.9023 1.0293 32.8438 1.18945 32.7266 1.29492C32.6133 1.40039 32.4766 1.45312 32.3164 1.45312C32.1484 1.45312 32.0078 1.40039 31.8945 1.29492C31.7852 1.18945 31.7305 1.0293 31.7305 0.814453C31.7305 0.595703 31.7852 0.435547 31.8945 0.333984C32.0078 0.228516 32.1484 0.175781 32.3164 0.175781Z" fill="#0786A5"/>
<path d="M42.377 2.57812L39.7051 5.70117L42.6055 9H41.4922L38.6797 5.74219V9H37.7715V5.74219L34.9648 9H33.8516L36.752 5.70117L34.0742 2.57812H35.1465L37.7715 5.69531V2.57812H38.6797V5.69531L41.3164 2.57812H42.377Z" fill="#0786A5"/>
<path d="M44.6562 2.57812V5.27344H48.2363V2.57812H49.209V9H48.2363V6.09961H44.6562V9H43.6777V2.57812H44.6562Z" fill="#0786A5"/>
<path d="M53.6738 2.47266C54.4395 2.47266 55.0078 2.64453 55.3789 2.98828C55.75 3.33203 55.9355 3.88086 55.9355 4.63477V9H55.2266L55.0391 8.05078H54.9922C54.8125 8.28516 54.625 8.48242 54.4297 8.64258C54.2344 8.79883 54.0078 8.91797 53.75 9C53.4961 9.07812 53.1836 9.11719 52.8125 9.11719C52.4219 9.11719 52.0742 9.04883 51.7695 8.91211C51.4688 8.77539 51.2305 8.56836 51.0547 8.29102C50.8828 8.01367 50.7969 7.66211 50.7969 7.23633C50.7969 6.5957 51.0508 6.10352 51.5586 5.75977C52.0664 5.41602 52.8398 5.22852 53.8789 5.19727L54.9863 5.15039V4.75781C54.9863 4.20312 54.8672 3.81445 54.6289 3.5918C54.3906 3.36914 54.0547 3.25781 53.6211 3.25781C53.2852 3.25781 52.9648 3.30664 52.6602 3.4043C52.3555 3.50195 52.0664 3.61719 51.793 3.75L51.4941 3.01172C51.7832 2.86328 52.1152 2.73633 52.4902 2.63086C52.8652 2.52539 53.2598 2.47266 53.6738 2.47266ZM54.9746 5.83594L53.9961 5.87695C53.1953 5.9082 52.6309 6.03906 52.3027 6.26953C51.9746 6.5 51.8105 6.82617 51.8105 7.24805C51.8105 7.61523 51.9219 7.88672 52.1445 8.0625C52.3672 8.23828 52.6621 8.32617 53.0293 8.32617C53.5996 8.32617 54.0664 8.16797 54.4297 7.85156C54.793 7.53516 54.9746 7.06055 54.9746 6.42773V5.83594Z" fill="#0786A5"/>
<path d="M60.957 2.46094C61.7578 2.46094 62.3965 2.73633 62.873 3.28711C63.3496 3.83789 63.5879 4.66602 63.5879 5.77148C63.5879 6.50195 63.4785 7.11523 63.2598 7.61133C63.041 8.10742 62.7324 8.48242 62.334 8.73633C61.9395 8.99023 61.4727 9.11719 60.9336 9.11719C60.5938 9.11719 60.2949 9.07227 60.0371 8.98242C59.7793 8.89258 59.5586 8.77148 59.375 8.61914C59.1914 8.4668 59.0391 8.30078 58.918 8.12109H58.8477C58.8594 8.27344 58.873 8.45703 58.8887 8.67188C58.9082 8.88672 58.918 9.07422 58.918 9.23438V11.8711H57.9395V2.57812H58.7422L58.8711 3.52734H58.918C59.043 3.33203 59.1953 3.1543 59.375 2.99414C59.5547 2.83008 59.7734 2.70117 60.0312 2.60742C60.293 2.50977 60.6016 2.46094 60.957 2.46094ZM60.7871 3.28125C60.3418 3.28125 59.9824 3.36719 59.709 3.53906C59.4395 3.71094 59.2422 3.96875 59.1172 4.3125C58.9922 4.65234 58.9258 5.08008 58.918 5.5957V5.7832C58.918 6.32617 58.9766 6.78516 59.0938 7.16016C59.2148 7.53516 59.4121 7.82031 59.6855 8.01562C59.9629 8.21094 60.334 8.30859 60.7988 8.30859C61.1973 8.30859 61.5293 8.20117 61.7949 7.98633C62.0605 7.77148 62.2578 7.47266 62.3867 7.08984C62.5195 6.70312 62.5859 6.25977 62.5859 5.75977C62.5859 5.00195 62.4375 4.40039 62.1406 3.95508C61.8477 3.50586 61.3965 3.28125 60.7871 3.28125Z" fill="#0786A5"/>
<path d="M70.8242 5.77734C70.8242 6.30469 70.7559 6.77539 70.6191 7.18945C70.4824 7.60352 70.2852 7.95312 70.0273 8.23828C69.7695 8.52344 69.457 8.74219 69.0898 8.89453C68.7266 9.04297 68.3145 9.11719 67.8535 9.11719C67.4238 9.11719 67.0293 9.04297 66.6699 8.89453C66.3145 8.74219 66.0059 8.52344 65.7441 8.23828C65.4863 7.95312 65.2852 7.60352 65.1406 7.18945C65 6.77539 64.9297 6.30469 64.9297 5.77734C64.9297 5.07422 65.0488 4.47656 65.2871 3.98438C65.5254 3.48828 65.8652 3.11133 66.3066 2.85352C66.752 2.5918 67.2812 2.46094 67.8945 2.46094C68.4805 2.46094 68.9922 2.5918 69.4297 2.85352C69.8711 3.11523 70.2129 3.49414 70.4551 3.99023C70.7012 4.48242 70.8242 5.07812 70.8242 5.77734ZM65.9375 5.77734C65.9375 6.29297 66.0059 6.74023 66.1426 7.11914C66.2793 7.49805 66.4902 7.79102 66.7754 7.99805C67.0605 8.20508 67.4277 8.30859 67.877 8.30859C68.3223 8.30859 68.6875 8.20508 68.9727 7.99805C69.2617 7.79102 69.4746 7.49805 69.6113 7.11914C69.748 6.74023 69.8164 6.29297 69.8164 5.77734C69.8164 5.26562 69.748 4.82422 69.6113 4.45312C69.4746 4.07812 69.2637 3.78906 68.9785 3.58594C68.6934 3.38281 68.3242 3.28125 67.8711 3.28125C67.2031 3.28125 66.7129 3.50195 66.4004 3.94336C66.0918 4.38477 65.9375 4.99609 65.9375 5.77734Z" fill="#0786A5"/>
<path d="M77.2109 2.57812V8.17383H78.1309V11.2207H77.1875V9H72.6406V11.2207H71.709V8.17383H72.2129C72.5801 7.66602 72.8848 7.10938 73.127 6.50391C73.3691 5.89844 73.5527 5.26367 73.6777 4.59961C73.8027 3.93164 73.8691 3.25781 73.877 2.57812H77.2109ZM76.2676 3.35156H74.7441C74.709 3.92188 74.625 4.50195 74.4922 5.0918C74.3633 5.68164 74.1914 6.24414 73.9766 6.7793C73.7617 7.31055 73.5117 7.77539 73.2266 8.17383H76.2676V3.35156Z" fill="#0786A5"/>
<path d="M80.3867 2.57812V5.27344H83.9668V2.57812H84.9395V9H83.9668V6.09961H80.3867V9H79.4082V2.57812H80.3867Z" fill="#0786A5"/>
<path d="M87.9277 2.57812V6.61523C87.9277 6.69336 87.9258 6.79492 87.9219 6.91992C87.918 7.04102 87.9121 7.17188 87.9043 7.3125C87.8965 7.44922 87.8887 7.58203 87.8809 7.71094C87.877 7.83594 87.8711 7.93945 87.8633 8.02148L91.3672 2.57812H92.5625V9H91.6543V5.0625C91.6543 4.9375 91.6562 4.77734 91.6602 4.58203C91.6641 4.38672 91.6699 4.19531 91.6777 4.00781C91.6855 3.81641 91.6914 3.66797 91.6953 3.5625L88.2031 9H87.002V2.57812H87.9277Z" fill="#0786A5"/>
<path d="M95.5566 2.57812V6.61523C95.5566 6.69336 95.5547 6.79492 95.5508 6.91992C95.5469 7.04102 95.541 7.17188 95.5332 7.3125C95.5254 7.44922 95.5176 7.58203 95.5098 7.71094C95.5059 7.83594 95.5 7.93945 95.4922 8.02148L98.9961 2.57812H100.191V9H99.2832V5.0625C99.2832 4.9375 99.2852 4.77734 99.2891 4.58203C99.293 4.38672 99.2988 4.19531 99.3066 4.00781C99.3145 3.81641 99.3203 3.66797 99.3242 3.5625L95.832 9H94.6309V2.57812H95.5566ZM99.7109 -0.0644531C99.6758 0.330078 99.5762 0.660156 99.4121 0.925781C99.252 1.19141 99.0156 1.39258 98.7031 1.5293C98.3906 1.66211 97.9902 1.72852 97.502 1.72852C96.998 1.72852 96.5918 1.66406 96.2832 1.53516C95.9785 1.40234 95.752 1.20312 95.6035 0.9375C95.459 0.671875 95.373 0.337891 95.3457 -0.0644531H96.2598C96.3027 0.365234 96.418 0.658203 96.6055 0.814453C96.793 0.970703 97.0977 1.04883 97.5195 1.04883C97.8945 1.04883 98.1895 0.966797 98.4043 0.802734C98.6191 0.638672 98.748 0.349609 98.791 -0.0644531H99.7109Z" fill="#0786A5"/>
<path d="M105.523 9V0.433594H110.557V1.3125H106.52V4.07812H107.85C108.674 4.07812 109.318 4.17969 109.783 4.38281C110.248 4.58594 110.574 4.86914 110.762 5.23242C110.953 5.5957 111.049 6.01758 111.049 6.49805C111.049 7.28711 110.812 7.90234 110.34 8.34375C109.871 8.78125 109.092 9 108.002 9H105.523ZM106.52 8.14453H107.896C108.67 8.14453 109.217 8.00977 109.537 7.74023C109.861 7.4668 110.023 7.05273 110.023 6.49805C110.023 6.11133 109.945 5.80469 109.789 5.57812C109.633 5.35156 109.387 5.18945 109.051 5.0918C108.715 4.99414 108.273 4.94531 107.727 4.94531H106.52V8.14453Z" fill="#0786A5"/>
<path d="M117.541 9H116.551V3.39258H114.6C114.521 4.4043 114.422 5.27148 114.301 5.99414C114.184 6.71289 114.035 7.30078 113.855 7.75781C113.68 8.21094 113.465 8.54492 113.211 8.75977C112.961 8.9707 112.662 9.07617 112.314 9.07617C112.209 9.07617 112.109 9.07031 112.016 9.05859C111.922 9.04688 111.842 9.02734 111.775 9V8.26172C111.826 8.27734 111.879 8.28906 111.934 8.29688C111.992 8.30469 112.053 8.30859 112.115 8.30859C112.291 8.30859 112.451 8.23633 112.596 8.0918C112.744 7.94336 112.877 7.7207 112.994 7.42383C113.115 7.12695 113.223 6.75195 113.316 6.29883C113.41 5.8418 113.492 5.30469 113.562 4.6875C113.637 4.06641 113.701 3.36328 113.756 2.57812H117.541V9Z" fill="#0786A5"/>
<path d="M121.994 2.47266C122.76 2.47266 123.328 2.64453 123.699 2.98828C124.07 3.33203 124.256 3.88086 124.256 4.63477V9H123.547L123.359 8.05078H123.312C123.133 8.28516 122.945 8.48242 122.75 8.64258C122.555 8.79883 122.328 8.91797 122.07 9C121.816 9.07812 121.504 9.11719 121.133 9.11719C120.742 9.11719 120.395 9.04883 120.09 8.91211C119.789 8.77539 119.551 8.56836 119.375 8.29102C119.203 8.01367 119.117 7.66211 119.117 7.23633C119.117 6.5957 119.371 6.10352 119.879 5.75977C120.387 5.41602 121.16 5.22852 122.199 5.19727L123.307 5.15039V4.75781C123.307 4.20312 123.188 3.81445 122.949 3.5918C122.711 3.36914 122.375 3.25781 121.941 3.25781C121.605 3.25781 121.285 3.30664 120.98 3.4043C120.676 3.50195 120.387 3.61719 120.113 3.75L119.814 3.01172C120.104 2.86328 120.436 2.73633 120.811 2.63086C121.186 2.52539 121.58 2.47266 121.994 2.47266ZM123.295 5.83594L122.316 5.87695C121.516 5.9082 120.951 6.03906 120.623 6.26953C120.295 6.5 120.131 6.82617 120.131 7.24805C120.131 7.61523 120.242 7.88672 120.465 8.0625C120.688 8.23828 120.982 8.32617 121.35 8.32617C121.92 8.32617 122.387 8.16797 122.75 7.85156C123.113 7.53516 123.295 7.06055 123.295 6.42773V5.83594Z" fill="#0786A5"/>
<path d="M130.156 2.57812V3.4043H127.238V9H126.26V2.57812H130.156Z" fill="#0786A5"/>
<path d="M136.977 5.77734C136.977 6.30469 136.908 6.77539 136.771 7.18945C136.635 7.60352 136.438 7.95312 136.18 8.23828C135.922 8.52344 135.609 8.74219 135.242 8.89453C134.879 9.04297 134.467 9.11719 134.006 9.11719C133.576 9.11719 133.182 9.04297 132.822 8.89453C132.467 8.74219 132.158 8.52344 131.896 8.23828C131.639 7.95312 131.438 7.60352 131.293 7.18945C131.152 6.77539 131.082 6.30469 131.082 5.77734C131.082 5.07422 131.201 4.47656 131.439 3.98438C131.678 3.48828 132.018 3.11133 132.459 2.85352C132.904 2.5918 133.434 2.46094 134.047 2.46094C134.633 2.46094 135.145 2.5918 135.582 2.85352C136.023 3.11523 136.365 3.49414 136.607 3.99023C136.854 4.48242 136.977 5.07812 136.977 5.77734ZM132.09 5.77734C132.09 6.29297 132.158 6.74023 132.295 7.11914C132.432 7.49805 132.643 7.79102 132.928 7.99805C133.213 8.20508 133.58 8.30859 134.029 8.30859C134.475 8.30859 134.84 8.20508 135.125 7.99805C135.414 7.79102 135.627 7.49805 135.764 7.11914C135.9 6.74023 135.969 6.29297 135.969 5.77734C135.969 5.26562 135.9 4.82422 135.764 4.45312C135.627 4.07812 135.416 3.78906 135.131 3.58594C134.846 3.38281 134.477 3.28125 134.023 3.28125C133.355 3.28125 132.865 3.50195 132.553 3.94336C132.244 4.38477 132.09 4.99609 132.09 5.77734Z" fill="#0786A5"/>
<path d="M143.363 2.57812V8.17383H144.283V11.2207H143.34V9H138.793V11.2207H137.861V8.17383H138.365C138.732 7.66602 139.037 7.10938 139.279 6.50391C139.521 5.89844 139.705 5.26367 139.83 4.59961C139.955 3.93164 140.021 3.25781 140.029 2.57812H143.363ZM142.42 3.35156H140.896C140.861 3.92188 140.777 4.50195 140.645 5.0918C140.516 5.68164 140.344 6.24414 140.129 6.7793C139.914 7.31055 139.664 7.77539 139.379 8.17383H142.42V3.35156Z" fill="#0786A5"/>
<path d="M146.533 2.57812V9H145.561V2.57812H146.533ZM146.059 0.175781C146.219 0.175781 146.355 0.228516 146.469 0.333984C146.586 0.435547 146.645 0.595703 146.645 0.814453C146.645 1.0293 146.586 1.18945 146.469 1.29492C146.355 1.40039 146.219 1.45312 146.059 1.45312C145.891 1.45312 145.75 1.40039 145.637 1.29492C145.527 1.18945 145.473 1.0293 145.473 0.814453C145.473 0.595703 145.527 0.435547 145.637 0.333984C145.75 0.228516 145.891 0.175781 146.059 0.175781Z" fill="#0786A5"/>
<path d="M149.521 2.57812V6.61523C149.521 6.69336 149.52 6.79492 149.516 6.91992C149.512 7.04102 149.506 7.17188 149.498 7.3125C149.49 7.44922 149.482 7.58203 149.475 7.71094C149.471 7.83594 149.465 7.93945 149.457 8.02148L152.961 2.57812H154.156V9H153.248V5.0625C153.248 4.9375 153.25 4.77734 153.254 4.58203C153.258 4.38672 153.264 4.19531 153.271 4.00781C153.279 3.81641 153.285 3.66797 153.289 3.5625L149.797 9H148.596V2.57812H149.521ZM153.676 -0.0644531C153.641 0.330078 153.541 0.660156 153.377 0.925781C153.217 1.19141 152.98 1.39258 152.668 1.5293C152.355 1.66211 151.955 1.72852 151.467 1.72852C150.963 1.72852 150.557 1.66406 150.248 1.53516C149.943 1.40234 149.717 1.20312 149.568 0.9375C149.424 0.671875 149.338 0.337891 149.311 -0.0644531H150.225C150.268 0.365234 150.383 0.658203 150.57 0.814453C150.758 0.970703 151.062 1.04883 151.484 1.04883C151.859 1.04883 152.154 0.966797 152.369 0.802734C152.584 0.638672 152.713 0.349609 152.756 -0.0644531H153.676Z" fill="#0786A5"/>
<path d="M157.203 2.57812V5.27344H160.783V2.57812H161.756V9H160.783V6.09961H157.203V9H156.225V2.57812H157.203Z" fill="#0786A5"/>
<path d="M164.744 2.57812V6.61523C164.744 6.69336 164.742 6.79492 164.738 6.91992C164.734 7.04102 164.729 7.17188 164.721 7.3125C164.713 7.44922 164.705 7.58203 164.697 7.71094C164.693 7.83594 164.688 7.93945 164.68 8.02148L168.184 2.57812H169.379V9H168.471V5.0625C168.471 4.9375 168.473 4.77734 168.477 4.58203C168.48 4.38672 168.486 4.19531 168.494 4.00781C168.502 3.81641 168.508 3.66797 168.512 3.5625L165.02 9H163.818V2.57812H164.744Z" fill="#0786A5"/>
<path d="M172.373 2.57812V6.61523C172.373 6.69336 172.371 6.79492 172.367 6.91992C172.363 7.04102 172.357 7.17188 172.35 7.3125C172.342 7.44922 172.334 7.58203 172.326 7.71094C172.322 7.83594 172.316 7.93945 172.309 8.02148L175.812 2.57812H177.008V9H176.1V5.0625C176.1 4.9375 176.102 4.77734 176.105 4.58203C176.109 4.38672 176.115 4.19531 176.123 4.00781C176.131 3.81641 176.137 3.66797 176.141 3.5625L172.648 9H171.447V2.57812H172.373ZM176.527 -0.0644531C176.492 0.330078 176.393 0.660156 176.229 0.925781C176.068 1.19141 175.832 1.39258 175.52 1.5293C175.207 1.66211 174.807 1.72852 174.318 1.72852C173.814 1.72852 173.408 1.66406 173.1 1.53516C172.795 1.40234 172.568 1.20312 172.42 0.9375C172.275 0.671875 172.189 0.337891 172.162 -0.0644531H173.076C173.119 0.365234 173.234 0.658203 173.422 0.814453C173.609 0.970703 173.914 1.04883 174.336 1.04883C174.711 1.04883 175.006 0.966797 175.221 0.802734C175.436 0.638672 175.564 0.349609 175.607 -0.0644531H176.527Z" fill="#0786A5"/>
<path d="M186.436 0.310547V1.36523C187.342 1.38086 188.062 1.5293 188.598 1.81055C189.133 2.0918 189.518 2.46875 189.752 2.94141C189.986 3.41406 190.104 3.94922 190.104 4.54688C190.104 4.95312 190.041 5.34766 189.916 5.73047C189.791 6.11328 189.588 6.45898 189.307 6.76758C189.025 7.07227 188.648 7.31836 188.176 7.50586C187.707 7.68945 187.127 7.78711 186.436 7.79883V9.11719H185.451V7.79883C184.744 7.78711 184.154 7.68555 183.682 7.49414C183.209 7.30273 182.834 7.05273 182.557 6.74414C182.279 6.43555 182.08 6.0918 181.959 5.71289C181.842 5.33398 181.783 4.94922 181.783 4.55859C181.783 4.125 181.848 3.71875 181.977 3.33984C182.105 2.95703 182.312 2.62109 182.598 2.33203C182.887 2.03906 183.266 1.80859 183.734 1.64062C184.203 1.46875 184.775 1.37695 185.451 1.36523V0.310547H186.436ZM185.451 2.20898C184.803 2.22461 184.283 2.33008 183.893 2.52539C183.506 2.7168 183.227 2.98438 183.055 3.32812C182.883 3.67188 182.797 4.07812 182.797 4.54688C182.797 5.03906 182.891 5.46484 183.078 5.82422C183.27 6.17969 183.561 6.45703 183.951 6.65625C184.346 6.85156 184.846 6.95898 185.451 6.97852V2.20898ZM186.436 2.20898V6.97852C187.061 6.95898 187.568 6.84766 187.959 6.64453C188.35 6.44141 188.637 6.16016 188.82 5.80078C189.004 5.44141 189.096 5.01953 189.096 4.53516C189.096 4.0625 189.01 3.65625 188.838 3.31641C188.666 2.97266 188.385 2.70703 187.994 2.51953C187.607 2.32812 187.088 2.22461 186.436 2.20898Z" fill="#0786A5"/>
<path d="M197.293 5.77734C197.293 6.30469 197.225 6.77539 197.088 7.18945C196.951 7.60352 196.754 7.95312 196.496 8.23828C196.238 8.52344 195.926 8.74219 195.559 8.89453C195.195 9.04297 194.783 9.11719 194.322 9.11719C193.893 9.11719 193.498 9.04297 193.139 8.89453C192.783 8.74219 192.475 8.52344 192.213 8.23828C191.955 7.95312 191.754 7.60352 191.609 7.18945C191.469 6.77539 191.398 6.30469 191.398 5.77734C191.398 5.07422 191.518 4.47656 191.756 3.98438C191.994 3.48828 192.334 3.11133 192.775 2.85352C193.221 2.5918 193.75 2.46094 194.363 2.46094C194.949 2.46094 195.461 2.5918 195.898 2.85352C196.34 3.11523 196.682 3.49414 196.924 3.99023C197.17 4.48242 197.293 5.07812 197.293 5.77734ZM192.406 5.77734C192.406 6.29297 192.475 6.74023 192.611 7.11914C192.748 7.49805 192.959 7.79102 193.244 7.99805C193.529 8.20508 193.896 8.30859 194.346 8.30859C194.791 8.30859 195.156 8.20508 195.441 7.99805C195.73 7.79102 195.943 7.49805 196.08 7.11914C196.217 6.74023 196.285 6.29297 196.285 5.77734C196.285 5.26562 196.217 4.82422 196.08 4.45312C195.943 4.07812 195.732 3.78906 195.447 3.58594C195.162 3.38281 194.793 3.28125 194.34 3.28125C193.672 3.28125 193.182 3.50195 192.869 3.94336C192.561 4.38477 192.406 4.99609 192.406 5.77734Z" fill="#0786A5"/>
<path d="M199.953 2.57812V5.27344H203.533V2.57812H204.506V9H203.533V6.09961H199.953V9H198.975V2.57812H199.953Z" fill="#0786A5"/>
<path d="M211.273 2.57812V8.17383H212.193V11.2207H211.25V9H206.703V11.2207H205.771V8.17383H206.275C206.643 7.66602 206.947 7.10938 207.189 6.50391C207.432 5.89844 207.615 5.26367 207.74 4.59961C207.865 3.93164 207.932 3.25781 207.939 2.57812H211.273ZM210.33 3.35156H208.807C208.771 3.92188 208.688 4.50195 208.555 5.0918C208.426 5.68164 208.254 6.24414 208.039 6.7793C207.824 7.31055 207.574 7.77539 207.289 8.17383H210.33V3.35156Z" fill="#0786A5"/>
<path d="M0.15625 20.8672H5.48828C7.76953 20.8672 9.49609 21.1875 10.668 21.8281C11.8398 22.4688 12.4258 23.5938 12.4258 25.2031C12.4258 25.8516 12.3203 26.4375 12.1094 26.9609C11.9062 27.4844 11.6094 27.9141 11.2188 28.25C10.8281 28.5859 10.3516 28.8047 9.78906 28.9062V29.0234C10.3594 29.1406 10.875 29.3438 11.3359 29.6328C11.7969 29.9141 12.1641 30.3281 12.4375 30.875C12.7188 31.4141 12.8594 32.1328 12.8594 33.0312C12.8594 34.0703 12.6055 34.9609 12.0977 35.7031C11.5898 36.4453 10.8633 37.0156 9.91797 37.4141C8.98047 37.8047 7.86328 38 6.56641 38H0.15625V20.8672ZM3.78906 27.6523H5.89844C6.95312 27.6523 7.68359 27.4883 8.08984 27.1602C8.49609 26.8242 8.69922 26.332 8.69922 25.6836C8.69922 25.0273 8.45703 24.5586 7.97266 24.2773C7.49609 23.9883 6.73828 23.8438 5.69922 23.8438H3.78906V27.6523ZM3.78906 30.5352V35H6.15625C7.25 35 8.01172 34.7891 8.44141 34.3672C8.87109 33.9453 9.08594 33.3789 9.08594 32.668C9.08594 32.2461 8.99219 31.875 8.80469 31.5547C8.61719 31.2344 8.30078 30.9844 7.85547 30.8047C7.41797 30.625 6.8125 30.5352 6.03906 30.5352H3.78906Z" fill="#0786A5"/>
<path d="M23.2891 24.6523C24.7656 24.6523 25.957 25.2266 26.8633 26.375C27.7773 27.5234 28.2344 29.207 28.2344 31.4258C28.2344 32.9102 28.0195 34.1602 27.5898 35.1758C27.1602 36.1836 26.5664 36.9453 25.8086 37.4609C25.0508 37.9766 24.1797 38.2344 23.1953 38.2344C22.5625 38.2344 22.0195 38.1562 21.5664 38C21.1133 37.8359 20.7266 37.6289 20.4062 37.3789C20.0859 37.1211 19.8086 36.8477 19.5742 36.5586H19.3867C19.4492 36.8711 19.4961 37.1914 19.5273 37.5195C19.5586 37.8477 19.5742 38.168 19.5742 38.4805V43.7656H16V24.8984H18.9062L19.4102 26.5977H19.5742C19.8086 26.2461 20.0938 25.9219 20.4297 25.625C20.7656 25.3281 21.168 25.0938 21.6367 24.9219C22.1133 24.7422 22.6641 24.6523 23.2891 24.6523ZM22.1406 27.5117C21.5156 27.5117 21.0195 27.6406 20.6523 27.8984C20.2852 28.1562 20.0156 28.543 19.8438 29.0586C19.6797 29.5742 19.5898 30.2266 19.5742 31.0156V31.4023C19.5742 32.2461 19.6523 32.9609 19.8086 33.5469C19.9727 34.1328 20.2422 34.5781 20.6172 34.8828C21 35.1875 21.5234 35.3398 22.1875 35.3398C22.7344 35.3398 23.1836 35.1875 23.5352 34.8828C23.8867 34.5781 24.1484 34.1328 24.3203 33.5469C24.5 32.9531 24.5898 32.2305 24.5898 31.3789C24.5898 30.0977 24.3906 29.1328 23.9922 28.4844C23.5938 27.8359 22.9766 27.5117 22.1406 27.5117Z" fill="#0786A5"/>
<path d="M33.1797 38H29.3125L32.8398 32.8203C32.3945 32.6328 31.9766 32.375 31.5859 32.0469C31.1953 31.7109 30.8789 31.2891 30.6367 30.7812C30.3945 30.2734 30.2734 29.6641 30.2734 28.9531C30.2734 27.6484 30.7656 26.6484 31.75 25.9531C32.7422 25.25 34.0195 24.8984 35.582 24.8984H41.6758V38H38.1016V33.125H36.1328L33.1797 38ZM33.7773 28.9766C33.7773 29.5234 33.9922 29.9531 34.4219 30.2656C34.8594 30.5703 35.4219 30.7227 36.1094 30.7227H38.1016V27.418H35.6523C35.0117 27.418 34.5391 27.5742 34.2344 27.8867C33.9297 28.1914 33.7773 28.5547 33.7773 28.9766Z" fill="#0786A5"/>
<path d="M56.2539 27.582H51.9648V38H48.3906V27.582H44.0898V24.8984H56.2539V27.582Z" fill="#0786A5"/>
<path d="M56.8281 24.8984H60.7422L63.2148 32.2695C63.293 32.5039 63.3594 32.7422 63.4141 32.9844C63.4688 33.2266 63.5156 33.4766 63.5547 33.7344C63.5938 33.9922 63.625 34.2617 63.6484 34.543H63.7188C63.7656 34.1211 63.8281 33.7266 63.9062 33.3594C63.9922 32.9922 64.0977 32.6289 64.2227 32.2695L66.6484 24.8984H70.4805L64.9375 39.6758C64.6016 40.582 64.1641 41.3359 63.625 41.9375C63.0859 42.5469 62.4648 43.0039 61.7617 43.3086C61.0664 43.6133 60.3008 43.7656 59.4648 43.7656C59.0586 43.7656 58.707 43.7422 58.4102 43.6953C58.1133 43.6562 57.8594 43.6133 57.6484 43.5664V40.7305C57.8125 40.7695 58.0195 40.8047 58.2695 40.8359C58.5195 40.8672 58.7812 40.8828 59.0547 40.8828C59.5547 40.8828 59.9844 40.7773 60.3438 40.5664C60.7031 40.3555 61.0039 40.0703 61.2461 39.7109C61.4883 39.3594 61.6797 38.9727 61.8203 38.5508L62.0312 37.9062L56.8281 24.8984Z" fill="#0786A5"/>
<path d="M83.9805 28.332C83.9805 29.0352 83.7578 29.6367 83.3125 30.1367C82.875 30.6289 82.2266 30.9453 81.3672 31.0859V31.1797C82.2734 31.2891 83.0039 31.6055 83.5586 32.1289C84.1133 32.6445 84.3906 33.2969 84.3906 34.0859C84.3906 34.8359 84.1953 35.5078 83.8047 36.1016C83.4141 36.6875 82.793 37.1523 81.9414 37.4961C81.0898 37.832 79.9766 38 78.6016 38H72.3672V24.8984H78.6016C79.625 24.8984 80.543 25.0078 81.3555 25.2266C82.168 25.4375 82.8086 25.793 83.2773 26.293C83.7461 26.793 83.9805 27.4727 83.9805 28.332ZM80.6875 33.8984C80.6875 33.3828 80.4844 33.0117 80.0781 32.7852C79.6797 32.5508 79.0859 32.4336 78.2969 32.4336H75.9414V35.5273H78.3672C79.0391 35.5273 79.5938 35.4023 80.0312 35.1523C80.4688 34.9023 80.6875 34.4844 80.6875 33.8984ZM80.3594 28.6133C80.3594 28.207 80.1992 27.9062 79.8789 27.7109C79.5586 27.5156 79.0859 27.418 78.4609 27.418H75.9414V30.0078H78.0508C78.8086 30.0078 79.3828 29.8984 79.7734 29.6797C80.1641 29.4609 80.3594 29.1055 80.3594 28.6133Z" fill="#0786A5"/>
<path d="M92.8281 24.6289C94.5859 24.6289 95.9336 25.0117 96.8711 25.7773C97.8086 26.543 98.2773 27.707 98.2773 29.2695V38H95.7812L95.0898 36.2188H94.9961C94.6211 36.6875 94.2383 37.0703 93.8477 37.3672C93.457 37.6641 93.0078 37.8828 92.5 38.0234C91.9922 38.1641 91.375 38.2344 90.6484 38.2344C89.875 38.2344 89.1797 38.0859 88.5625 37.7891C87.9531 37.4922 87.4727 37.0391 87.1211 36.4297C86.7695 35.8125 86.5938 35.0312 86.5938 34.0859C86.5938 32.6953 87.082 31.6719 88.0586 31.0156C89.0352 30.3516 90.5 29.9844 92.4531 29.9141L94.7266 29.8438V29.2695C94.7266 28.582 94.5469 28.0781 94.1875 27.7578C93.8281 27.4375 93.3281 27.2773 92.6875 27.2773C92.0547 27.2773 91.4336 27.3672 90.8242 27.5469C90.2148 27.7266 89.6055 27.9531 88.9961 28.2266L87.8125 25.8125C88.5078 25.4453 89.2852 25.1562 90.1445 24.9453C91.0117 24.7344 91.9062 24.6289 92.8281 24.6289ZM94.7266 31.9297L93.3438 31.9766C92.1875 32.0078 91.3828 32.2148 90.9297 32.5977C90.4844 32.9805 90.2617 33.4844 90.2617 34.1094C90.2617 34.6562 90.4219 35.0469 90.7422 35.2812C91.0625 35.5078 91.4805 35.6211 91.9961 35.6211C92.7617 35.6211 93.4062 35.3945 93.9297 34.9414C94.4609 34.4883 94.7266 33.8438 94.7266 33.0078V31.9297Z" fill="#0786A5"/>
<path d="M112.809 27.582H108.52V38H104.945V27.582H100.645V24.8984H112.809V27.582Z" fill="#0786A5"/>
<path d="M118.715 24.8984V30.0781C118.715 30.3438 118.703 30.6797 118.68 31.0859C118.664 31.4844 118.641 31.8906 118.609 32.3047C118.578 32.7188 118.547 33.0898 118.516 33.418C118.484 33.7461 118.461 33.9688 118.445 34.0859L124.492 24.8984H128.793V38H125.336V32.7734C125.336 32.3438 125.352 31.8711 125.383 31.3555C125.414 30.832 125.449 30.3398 125.488 29.8789C125.527 29.418 125.555 29.0703 125.57 28.8359L119.547 38H115.258V24.8984H118.715Z" fill="#0786A5"/>
</g>
<defs>
<clipPath id="clip0_181_828">
<rect width="234" height="44" fill="white"/>
</clipPath>
</defs>
</svg>
