<svg width="30" height="42" viewBox="0 0 30 42" fill="none" xmlns="http://www.w3.org/2000/svg">
  <path d="M15.0003 0.166748C6.93783 0.166748 0.416992 6.68758 0.416992 14.7501C0.416992 25.6876 15.0003 41.8334 15.0003 41.8334C15.0003 41.8334 29.5837 25.6876 29.5837 14.7501C29.5837 6.68758 23.0628 0.166748 15.0003 0.166748ZM15.0003 19.9584C13.619 19.9584 12.2942 19.4097 11.3175 18.4329C10.3407 17.4562 9.79199 16.1314 9.79199 14.7501C9.79199 13.3687 10.3407 12.044 11.3175 11.0672C12.2942 10.0905 13.619 9.54175 15.0003 9.54175C16.3817 9.54175 17.7064 10.0905 18.6832 11.0672C19.6599 12.044 20.2087 13.3687 20.2087 14.7501C20.2087 16.1314 19.6599 17.4562 18.6832 18.4329C17.7064 19.4097 16.3817 19.9584 15.0003 19.9584Z" fill="#FFD500"/>
</svg>