<svg width="21" height="21" viewBox="0 0 21 21" fill="none" xmlns="http://www.w3.org/2000/svg">
<path d="M18.25 11.5416C18.0209 11.5416 17.7813 11.4687 17.5521 11.4166C17.088 11.3144 16.632 11.1786 16.1875 11.0104C15.7043 10.8346 15.1731 10.8437 14.6962 11.036C14.2193 11.2283 13.8303 11.5902 13.6042 12.052L13.375 12.5208C12.3605 11.9564 11.4282 11.2554 10.6042 10.4375C9.78626 9.61352 9.08528 8.68121 8.52088 7.66663L8.95838 7.37496C9.42022 7.14884 9.78211 6.75989 9.97441 6.28298C10.1667 5.80606 10.1758 5.27487 10 4.79163C9.83465 4.34624 9.69894 3.89038 9.59379 3.42705C9.54171 3.19788 9.50004 2.9583 9.46879 2.71871C9.3423 1.98499 8.95799 1.32053 8.38507 0.845005C7.81215 0.369482 7.08827 0.11414 6.34379 0.124964H3.21879C2.76987 0.120749 2.3253 0.213312 1.91537 0.39635C1.50543 0.579389 1.13974 0.848606 0.843201 1.18567C0.546659 1.52274 0.326226 1.91975 0.196906 2.34967C0.0675872 2.77958 0.0324183 3.23232 0.093794 3.67705C0.64873 8.04099 2.64174 12.0957 5.75801 15.2006C8.87429 18.3056 12.9362 20.2838 17.3021 20.8229H17.698C18.4661 20.824 19.2077 20.5422 19.7813 20.0312C20.1108 19.7365 20.3741 19.3752 20.5537 18.9711C20.7332 18.5671 20.825 18.1296 20.823 17.6875V14.5625C20.8102 13.8389 20.5467 13.1422 20.0775 12.5913C19.6082 12.0404 18.9624 11.6694 18.25 11.5416ZM18.7709 17.7916C18.7707 17.9395 18.739 18.0857 18.6779 18.2204C18.6169 18.3551 18.5278 18.4753 18.4167 18.5729C18.3007 18.6739 18.1646 18.7494 18.0174 18.7942C17.8702 18.8391 17.7152 18.8524 17.5625 18.8333C13.6614 18.3331 10.0378 16.5484 7.26329 13.7607C4.48879 10.973 2.7213 7.34094 2.23963 3.43746C2.22305 3.28488 2.23758 3.13052 2.28234 2.98371C2.3271 2.83689 2.40116 2.70068 2.50004 2.5833C2.59766 2.47218 2.71782 2.38313 2.85252 2.32207C2.98723 2.261 3.13339 2.22932 3.28129 2.22913H6.40629C6.64853 2.22374 6.88507 2.30296 7.07519 2.45316C7.26532 2.60336 7.39714 2.81514 7.44796 3.05205C7.48963 3.33677 7.54171 3.61802 7.60421 3.8958C7.72454 4.44491 7.88469 4.98453 8.08338 5.51038L6.62504 6.18746C6.50035 6.24467 6.38819 6.32595 6.295 6.42663C6.20181 6.5273 6.12942 6.6454 6.08199 6.77413C6.03457 6.90286 6.01303 7.03968 6.01864 7.17676C6.02424 7.31383 6.05686 7.44845 6.11463 7.57288C7.61379 10.7841 10.1951 13.3654 13.4063 14.8645C13.6599 14.9687 13.9444 14.9687 14.198 14.8645C14.3279 14.8181 14.4473 14.7463 14.5492 14.6533C14.6511 14.5603 14.7335 14.448 14.7917 14.3229L15.4375 12.8645C15.976 13.0571 16.5257 13.2171 17.0834 13.3437C17.3612 13.4062 17.6424 13.4583 17.9271 13.5C18.164 13.5508 18.3758 13.6826 18.526 13.8727C18.6762 14.0629 18.7554 14.2994 18.75 14.5416L18.7709 17.7916Z" fill="#1BBAE1"/>
</svg>
