<svg width="20" height="20" viewBox="0 0 20 20" fill="none" xmlns="http://www.w3.org/2000/svg">
<path fill-rule="evenodd" clip-rule="evenodd" d="M11.1563 6.99437C11.5456 7.07734 11.8441 7.22531 12.0991 7.46406C12.4272 7.77391 12.607 8.14891 12.6861 8.68766C12.7395 9.03891 12.7177 9.17703 12.5931 9.29156C12.4766 9.39812 12.2611 9.40203 12.1306 9.30141C12.0358 9.23031 12.0061 9.15531 11.9844 8.95203C11.9587 8.68156 11.9112 8.49219 11.8302 8.31656C11.6562 7.94359 11.3498 7.75016 10.832 7.68703C10.5889 7.65734 10.5158 7.62984 10.4367 7.53703C10.2923 7.36531 10.3478 7.08703 10.5473 6.98438C10.6225 6.94688 10.6541 6.94297 10.8202 6.95281C10.9231 6.95875 11.0753 6.97656 11.1563 6.99437ZM10.7353 5.50422C11.9352 5.67984 12.8641 6.23641 13.473 7.14031C13.815 7.64953 14.0284 8.2475 14.1016 8.88891C14.1272 9.12375 14.1272 9.55203 14.0995 9.62313C14.0737 9.69016 13.9908 9.78094 13.9197 9.81844C13.8427 9.85797 13.6786 9.85391 13.5877 9.80656C13.4355 9.72953 13.39 9.60719 13.39 9.27562C13.39 8.76453 13.2575 8.22562 13.0283 7.80719C12.7673 7.32953 12.3878 6.93484 11.9253 6.66047C11.528 6.42359 10.9409 6.24797 10.4053 6.20453C10.2116 6.18875 10.1048 6.14922 10.0317 6.06438C9.91906 5.93609 9.90719 5.76234 10.002 5.61828C10.1047 5.45891 10.2628 5.43313 10.7353 5.50422ZM6.08031 4.28656C6.14953 4.31031 6.25625 4.36547 6.3175 4.405C6.69297 4.65375 7.73859 5.98984 8.08062 6.65688C8.27625 7.03781 8.34156 7.32 8.28031 7.52922C8.21703 7.75422 8.11234 7.87266 7.64375 8.24953C7.45594 8.40141 7.28 8.55734 7.25234 8.59891C7.18125 8.70156 7.12391 8.90281 7.12391 9.045C7.12594 9.37453 7.33938 9.97266 7.62 10.4325C7.83734 10.7897 8.22672 11.2475 8.61219 11.5989C9.06484 12.0134 9.46406 12.2956 9.91484 12.5186C10.4941 12.8067 10.8478 12.8797 11.1067 12.7594C11.1719 12.7297 11.2411 12.6903 11.2628 12.6725C11.2825 12.6547 11.4348 12.4692 11.6008 12.2639C11.9209 11.8612 11.9941 11.7961 12.2136 11.7211C12.4923 11.6264 12.7769 11.652 13.0636 11.7981C13.2811 11.9106 13.7555 12.2047 14.0617 12.4178C14.465 12.7 15.3267 13.4027 15.4434 13.5428C15.6489 13.7955 15.6845 14.1191 15.5463 14.4764C15.4 14.8533 14.8308 15.5598 14.4334 15.8619C14.0738 16.1342 13.8188 16.2387 13.4827 16.2545C13.2059 16.2683 13.0912 16.2447 12.7375 16.0986C9.9625 14.9559 7.74672 13.2508 5.9875 10.908C5.06844 9.68437 4.36859 8.41531 3.89031 7.09891C3.61156 6.33125 3.59781 5.99766 3.82703 5.60484C3.92594 5.43906 4.34688 5.02859 4.65328 4.79969C5.16328 4.42078 5.39844 4.28062 5.58625 4.24109C5.71469 4.21344 5.93813 4.23516 6.08031 4.28656ZM10.5989 4.07344C11.2789 4.15828 11.8283 4.32203 12.4312 4.61625C13.0242 4.90641 13.4038 5.18078 13.9058 5.68C14.3763 6.15172 14.6372 6.50891 14.9139 7.06344C15.2994 7.83703 15.5187 8.75687 15.5562 9.76922C15.5702 10.1145 15.5602 10.1916 15.4811 10.2903C15.3309 10.4817 15.0008 10.4502 14.8881 10.235C14.8525 10.1639 14.8427 10.1028 14.8308 9.82641C14.8109 9.40203 14.7814 9.12781 14.722 8.80016C14.4888 7.51531 13.872 6.48906 12.8877 5.75281C12.0673 5.13703 11.2194 4.83703 10.1086 4.77188C9.73297 4.75016 9.66781 4.73641 9.58281 4.67125C9.42469 4.54687 9.41672 4.25484 9.56891 4.11859C9.66188 4.03375 9.72703 4.02187 10.0492 4.03172C10.2175 4.03781 10.4645 4.05766 10.5989 4.07344ZM10 0C15.5228 0 20 4.47719 20 10C20 15.5228 15.5228 20 10 20C4.47719 20 0 15.5228 0 10C0 4.47719 4.47719 0 10 0Z" fill="#7F4DA0"/>
</svg>
