<svg width="20" height="20" viewBox="0 0 20 20" fill="none" xmlns="http://www.w3.org/2000/svg">
<path d="M10 20C15.5229 20 20 15.5228 20 10C20 4.47715 15.5229 0 10 0C4.47715 0 0 4.47715 0 10C0 15.5228 4.47715 20 10 20Z" fill="#6EBF3A"/>
<path d="M14.5861 5.50956C13.4648 4.38792 11.9743 3.77004 10.3868 3.76953C7.11534 3.76953 4.45276 6.43109 4.45111 9.70264C4.45111 10.749 4.72449 11.769 5.24301 12.6684L4.40137 15.7435L7.54761 14.9179C8.41495 15.3911 9.39068 15.6406 10.385 15.6406H10.3868C13.6574 15.6406 16.3208 12.979 16.3224 9.70709C16.3225 8.12138 15.7065 6.63082 14.5861 5.50956ZM10.3868 14.639H10.385C9.49983 14.6381 8.6316 14.4003 7.8743 13.9511L7.69314 13.8436L5.82705 14.3337L6.32509 12.5137L6.20704 12.3273C5.71345 11.5424 5.45241 10.6342 5.4533 9.70251C5.45419 6.98333 7.66745 4.77083 10.3884 4.77083C11.7058 4.77172 12.9453 5.28528 13.8766 6.2175C14.8078 7.14972 15.321 8.38853 15.3201 9.70646C15.3193 12.4268 13.1061 14.639 10.3868 14.639ZM13.0928 10.945C12.9445 10.8714 12.2156 10.5127 12.0798 10.463C11.9441 10.4133 11.8445 10.3883 11.746 10.5367C11.6476 10.6849 11.3634 11.0187 11.2765 11.1181C11.1894 11.2175 11.1034 11.23 10.9552 11.1554C10.8068 11.0807 10.3284 10.9247 9.76189 10.4195C9.3216 10.0261 9.02329 9.54057 8.93806 9.39224C8.85104 9.24353 8.92826 9.16364 9.00192 9.08947C9.06947 9.02332 9.15101 8.91633 9.2248 8.82983C9.29845 8.7432 9.32326 8.6815 9.37313 8.58253C9.42287 8.48355 9.39793 8.39705 9.36066 8.32288C9.32339 8.24834 9.02685 7.51851 8.90345 7.22198C8.78362 6.93257 8.66111 6.97162 8.56965 6.96717C8.48352 6.96323 8.38417 6.96234 8.28558 6.96234C8.18711 6.96234 8.02555 6.99923 7.89058 7.14781C7.75383 7.29614 7.37117 7.65476 7.37117 8.38445C7.37117 9.11415 7.90292 9.81904 7.9767 9.91814C8.05036 10.0171 9.02253 11.5139 10.5095 12.1567C10.8638 12.3094 11.1399 12.4008 11.3556 12.4692C11.7107 12.582 12.0347 12.566 12.2905 12.5278C12.5745 12.4852 13.1677 12.1692 13.2909 11.8229C13.4144 11.4766 13.4144 11.1801 13.377 11.118C13.3395 11.0559 13.2419 11.0187 13.0928 10.945Z" fill="white"/>
</svg>
