<svg width="28" height="20" viewBox="0 0 28 20" fill="none" xmlns="http://www.w3.org/2000/svg">
<path d="M27.1757 1.34008C25.4787 0.640977 23.7803 0.375 22.0828 0.375C16.6941 0.37457 11.3059 3.05367 5.91719 3.05367C4.56575 3.05367 3.21519 2.88523 1.86375 2.46414C1.71194 2.41687 1.55969 2.39453 1.41094 2.39453C0.658 2.39453 0 2.96687 0 3.76137V17.3936C0 17.9363 0.316313 18.4507 0.82425 18.6595C2.52131 19.359 4.21969 19.625 5.91719 19.625C11.3059 19.625 16.6946 16.9459 22.0833 16.9459C23.4347 16.9459 24.7852 17.1143 26.1367 17.5354C26.2885 17.5827 26.4408 17.605 26.5895 17.605C27.3424 17.605 28.0004 17.0327 28.0004 16.2382V2.60637C28 2.06324 27.6837 1.54934 27.1757 1.34008ZM14 14.125C12.0667 14.125 10.5 12.2778 10.5 10C10.5 7.7218 12.0671 5.875 14 5.875C15.9329 5.875 17.5 7.7218 17.5 10C17.5 12.2786 15.9324 14.125 14 14.125Z" fill="#1BBAE1"/>
</svg>
